# xmcd
#
# Track frame offsets:
#	150
#	4715
#	17434
#	29756
#	43133
#	53570
#	64407
#	78773
#	92899
#	107913
#	119144
#	130847
#	144285
#	153530
#	166574
#	176148
#	183865
#	193621
#	207082
#	216900
#	229157
#	243991
#	255396
#	269738
#	281668
#	291838
#
# Disc length: 4223 seconds
#
# Revision: 1
# Processed by: cddbd v1.5.1PL0 Copyright (c) Steve Scherf et al.
# Submitted via: audiograbber 1.82.02
#
DISCID=7a107d1a
DTITLE=Fox Control Vol.2 - Fox Control Vol.2
DYEAR=2002
DGENRE=Rock
TTITLE0=Intro
TTITLE1=Marco Kloss - Träumre deine Träume
TTITLE2=Danny Devis - Eine Bärenstarke Frau
TTITLE3=Christian Dawied - Herz gib acht
TTITLE4=Klaus Densow - Sowas will ich haben
TTITLE5=nico martin - Dich hat ein Engel geschickt
TTITLE6=Marco Reiss - Du mußt ein Engel sein
TTITLE7=Ulli Heider - Ich wünsch dir die Hölle auf Erden
TTITLE8=Manuela Gabriel - Stark wie der Fels in der Brandung
TTITLE9=Jörg Busch - Du sihst meine Tränen nicht
TTITLE10=Kevin Marx - Verloren weil ich dich verlier
TTITLE11=Mirco - Ich geb dir Alles 
TTITLE12=Hansi süssenbach - Liebe macht Blind
TTITLE13=Danny Peters - Wenn der Himmel es will
TTITLE14=Danny Davis - Vieleicht ist es Liebe
TTITLE15=Marco Reiss - Du bist die Nr.1
TTITLE16=Stefan Petern - Trumpf oder Joker 
TTITLE17=Danny Peters - Arriverderci
TTITLE18=Danny Devis - Im namen der Liebe
TTITLE19=Andreas Jan - Genieß das Leben 
TTITLE20=Marco Kloss - Jetzt brauchst du ein Paar freunde
TTITLE21=Jennifer Wember - Märchenprinz
TTITLE22=Leon Marche - Da schleicht ein Die durch mein Leben
TTITLE23=Peter Sebastian - Je egr je Lieber
TTITLE24=Jennifer Wember - Nicht für eine Nacht
TTITLE25=Olaf Henning - Ich binn nicht mehr dein Clown ( Playa-Party-Mix)
EXTD=
EXTT0=
EXTT1=
EXTT2=
EXTT3=
EXTT4=
EXTT5=
EXTT6=
EXTT7=
EXTT8=
EXTT9=
EXTT10=
EXTT11=
EXTT12=
EXTT13=
EXTT14=
EXTT15=
EXTT16=
EXTT17=
EXTT18=
EXTT19=
EXTT20=
EXTT21=
EXTT22=
EXTT23=
EXTT24=
EXTT25=
PLAYORDER=
